# xmcd
#
# Track frame offsets:
#	150
#	10690
#	23757
#	40395
#	55965
#	74067
#	84317
#	99865
#	113195
#	129745
#
# Disc length: 1882 seconds
#
# Revision: 2
# Processed by: cddbd v1.5.2PL0 Copyright (c) Steve Scherf et al.
# Submitted via: EZCDAudioConverter 6.0.8.1
#
DISCID=7e07580a
DTITLE=Stacy Dean Campbell - Hurt City
DYEAR=1995
DGENRE=Country
TTITLE0=Eight Feet High
TTITLE1=Why You Been Gone So Long
TTITLE2=I Can Dream
TTITLE3=Midnight Angel
TTITLE4=Hurt City
TTITLE5=Pop A Top
TTITLE6=Sometimes She Forgets
TTITLE7=Honey I Do
TTITLE8=Mind Over Matter
TTITLE9=There's The Door
EXTD=
EXTT0=
EXTT1=
EXTT2=
EXTT3=
EXTT4=
EXTT5=
EXTT6=
EXTT7=
EXTT8=
EXTT9=
PLAYORDER=
